<svg width="24" height="24" viewBox="0 0 24 24" fill="none" xmlns="http://www.w3.org/2000/svg">
    <path
        d="M20.5 16.0004H8M8 16.0004V3.50043M8 16.0004L3.5 20.5004M3.5 8.00043H16M16 8.00043V20.5004M16 8.00043L20.5 3.50043M21 15.3377V3.80043C21 3.5204 21 3.38039 20.9455 3.27343C20.8976 3.17935 20.8211 3.10286 20.727 3.05492C20.62 3.00043 20.48 3.00043 20.2 3.00043H8.66274C8.41815 3.00043 8.29586 3.00043 8.18077 3.02806C8.07873 3.05255 7.98119 3.09296 7.89172 3.14779C7.7908 3.20963 7.70432 3.2961 7.53137 3.46906L3.46863 7.5318C3.29568 7.70475 3.2092 7.79123 3.14736 7.89214C3.09253 7.98161 3.05213 8.07916 3.02763 8.1812C3 8.29628 3 8.41858 3 8.66317V20.2004C3 20.4805 3 20.6205 3.0545 20.7274C3.10243 20.8215 3.17892 20.898 3.273 20.9459C3.37996 21.0004 3.51997 21.0004 3.8 21.0004H15.3373C15.5818 21.0004 15.7041 21.0004 15.8192 20.9728C15.9213 20.9483 16.0188 20.9079 16.1083 20.8531C16.2092 20.7912 16.2957 20.7048 16.4686 20.5318L20.5314 16.4691C20.7043 16.2961 20.7908 16.2096 20.8526 16.1087C20.9075 16.0192 20.9479 15.9217 20.9724 15.8197C21 15.7046 21 15.5823 21 15.3377Z"
        stroke="#FF5555" stroke-width="2" stroke-linecap="round" stroke-linejoin="round" />
</svg>