<svg width="24" height="24" viewBox="0 0 24 24" fill="none" xmlns="http://www.w3.org/2000/svg">
    <path
        d="M12 2.00043L10.6985 7.20642C10.4445 8.22228 10.3176 8.7302 10.0531 9.14352C9.81915 9.5091 9.50868 9.81958 9.14309 10.0535C8.72978 10.318 8.22185 10.445 7.20599 10.6989L2 12.0004L7.20599 13.3019C8.22185 13.5559 8.72978 13.6829 9.14309 13.9473C9.50868 14.1813 9.81915 14.4918 10.0531 14.8573C10.3176 15.2707 10.4445 15.7786 10.6985 16.7944L12 22.0004L13.3015 16.7944C13.5555 15.7786 13.6824 15.2707 13.9469 14.8573C14.1808 14.4918 14.4913 14.1813 14.8569 13.9473C15.2702 13.6829 15.7782 13.5559 16.794 13.3019L22 12.0004L16.794 10.6989C15.7782 10.445 15.2702 10.318 14.8569 10.0535C14.4913 9.81958 14.1808 9.5091 13.9469 9.14352C13.6824 8.7302 13.5555 8.22228 13.3015 7.20642L12 2.00043Z"
        stroke="#FF5555" stroke-width="2" stroke-linecap="round" stroke-linejoin="round" />
</svg>