<svg width="383" height="485" viewBox="0 0 383 485" fill="none" xmlns="http://www.w3.org/2000/svg">
    <path d="M461.741 22.7472C515.082 76.0884 548.337 139.385 559.002 198.583C569.667 257.783 557.736 312.833 520.784 349.784C483.833 386.736 428.783 398.667 369.583 388.002C310.385 377.337 247.088 344.082 193.747 290.741C140.406 237.4 107.151 174.103 96.4861 114.905C85.8211 55.7054 97.7523 0.65538 134.704 -36.2962C171.655 -73.2477 226.705 -85.1789 285.905 -74.514C345.103 -63.8494 408.4 -30.5939 461.741 22.7472Z" stroke="white" />
    <path d="M493.741 -9.25276C547.082 44.0884 580.337 107.385 591.002 166.583C601.667 225.783 589.736 280.833 552.784 317.784C515.833 354.736 460.783 366.667 401.583 356.002C342.385 345.337 279.088 312.082 225.747 258.741C172.406 205.4 139.151 142.103 128.486 82.9053C117.821 23.7054 129.752 -31.3446 166.704 -68.2962C203.655 -105.248 258.705 -117.179 317.905 -106.514C377.103 -95.8494 440.4 -62.5939 493.741 -9.25276Z" stroke="white" />
    <path d="M525.741 -41.2528C579.082 12.0884 612.337 75.3849 623.002 134.583C633.667 193.783 621.736 248.833 584.784 285.784C547.833 322.736 492.783 334.667 433.583 324.002C374.385 313.337 311.088 280.082 257.747 226.741C204.406 173.4 171.151 110.103 160.486 50.9053C149.821 -8.29462 161.752 -63.3446 198.704 -100.296C235.655 -137.248 290.705 -149.179 349.905 -138.514C409.103 -127.849 472.4 -94.5939 525.741 -41.2528Z" stroke="white" />
</svg>
