<svg width="24" height="24" viewBox="0 0 24 24" fill="none" xmlns="http://www.w3.org/2000/svg">
    <path
        d="M12 2.50045V12.0005M12 12.0005L20.5 7.27816M12 12.0005L3.5 7.27816M12 12.0005V21.5005M20.5 16.7227L12.777 12.4321C12.4934 12.2746 12.3516 12.1958 12.2015 12.1649C12.0685 12.1376 11.9315 12.1376 11.7986 12.1649C11.6484 12.1958 11.5066 12.2746 11.223 12.4321L3.5 16.7227M21 16.059V7.9419C21 7.59925 21 7.42793 20.9495 7.27513C20.9049 7.13996 20.8318 7.01587 20.7354 6.91118C20.6263 6.79285 20.4766 6.70965 20.177 6.54324L12.777 2.43213C12.4934 2.27457 12.3516 2.1958 12.2015 2.16491C12.0685 2.13758 11.9315 2.13758 11.7986 2.16491C11.6484 2.1958 11.5066 2.27458 11.223 2.43213L3.82297 6.54325C3.52345 6.70965 3.37369 6.79285 3.26463 6.91119C3.16816 7.01588 3.09515 7.13996 3.05048 7.27514C3 7.42793 3 7.59925 3 7.9419V16.059C3 16.4016 3 16.573 3.05048 16.7258C3.09515 16.8609 3.16816 16.985 3.26463 17.0897C3.37369 17.2081 3.52345 17.2913 3.82297 17.4577L11.223 21.5688C11.5066 21.7263 11.6484 21.8051 11.7986 21.836C11.9315 21.8633 12.0685 21.8633 12.2015 21.836C12.3516 21.8051 12.4934 21.7263 12.777 21.5688L20.177 17.4577C20.4766 17.2913 20.6263 17.2081 20.7354 17.0897C20.8318 16.985 20.9049 16.8609 20.9495 16.7258C21 16.573 21 16.4016 21 16.059Z"
        stroke="#FF5555" stroke-width="2" stroke-linecap="round" stroke-linejoin="round" />
</svg>