<svg width="117" height="34" viewBox="0 0 117 34" fill="none" xmlns="http://www.w3.org/2000/svg">
<path d="M108.83 14V11.4683H108.046V10.908H110.245V11.4683H109.473V14H108.83ZM110.564 14V10.908H111.186L112.344 12.4436H112.054L113.179 10.908H113.801V14H113.158V11.6177L113.415 11.6758L112.224 13.2114H112.141L110.991 11.6758L111.207 11.6177V14H110.564Z" fill="black"/>
<path d="M45.8302 27.7794C46.8066 27.7794 47.6703 27.5918 48.4214 27.2165C49.1725 26.8216 49.7452 26.2291 50.1395 25.4392V27.4239H54.0826V11.2503H49.8578V20.6997C49.8578 21.6279 49.595 22.3783 49.0692 22.951C48.5434 23.5039 47.8675 23.7804 47.0413 23.7804C46.2151 23.7804 45.5392 23.5039 45.0134 22.951C44.4877 22.3783 44.2248 21.6279 44.2248 20.6997V11.2503H40V21.0552C40 23.0695 40.4976 24.6987 41.4928 25.9428C42.5067 27.1672 43.9525 27.7794 45.8302 27.7794Z" fill="black"/>
<path d="M57.1704 9.79877H61.3952V5.35546H57.1704V9.79877ZM57.1704 27.4239H61.3952V11.2503H57.1704V27.4239Z" fill="black"/>
<path d="M66.3457 27.4239H70.5705V15.1011H73.8658V11.2503H70.5705V11.0133C70.5705 9.57167 71.3685 8.85087 72.9645 8.85087C73.2274 8.85087 73.5372 8.88049 73.894 8.93973V5.14811C73.4621 5.04937 72.9645 5 72.4012 5C70.486 5 68.9932 5.52332 67.923 6.56997C66.8715 7.61662 66.3457 9.09772 66.3457 11.0133V11.2503H63.7545V15.1011H66.3457V27.4239Z" fill="black"/>
<path d="M76.0389 27.4239H80.2637V18.715C80.2637 17.5104 80.5829 16.5822 81.2213 15.9305C81.8597 15.2591 82.6953 14.9234 83.728 14.9234H85.0518V11.0725H84.1505C83.2117 11.0725 82.3761 11.2601 81.6438 11.6353C80.9303 11.9908 80.3764 12.6721 79.9821 13.6793V11.2503H76.0389V27.4239Z" fill="black"/>
<path d="M89.2975 34C92.114 34 94.1513 32.3115 95.4093 28.9346L102 11.2503H97.4654L93.8321 21.6476L90.1988 11.2503H85.6642L91.7197 27.4239L91.438 28.1052C91.2127 28.6384 90.9217 29.1124 90.5649 29.5271C90.2082 29.9418 89.6167 30.1491 88.7905 30.1491C88.1146 30.1491 87.4761 30.0504 86.8753 29.8529V33.4964C87.1945 33.6742 87.5606 33.8025 87.9737 33.8815C88.4056 33.9605 88.8468 34 89.2975 34Z" fill="black"/>
<path d="M26.3828 10.8852C26.1564 10.6651 25.8386 10.5651 25.5277 10.6163C25.2162 10.6672 24.9472 10.8628 24.8027 11.1434C24.3057 12.1089 23.6744 12.9961 22.9318 13.7805C23.0058 13.2139 23.0431 12.6439 23.0431 12.0724C23.0431 10.9759 22.8961 9.84742 22.6061 8.71805C21.6526 5.00853 19.1524 1.87144 15.7468 0.111205C15.4503 -0.0419942 15.097 -0.0366153 14.8053 0.125549C14.5136 0.287779 14.3225 0.585213 14.2964 0.917908C14.0309 4.28895 12.2945 7.35586 9.52978 9.33424C9.49319 9.3606 9.45687 9.38729 9.42054 9.41386C9.34531 9.46891 9.27438 9.52097 9.20811 9.56467C9.19775 9.57157 9.18746 9.57861 9.17736 9.58585C7.43858 10.8308 6.00388 12.4903 5.02817 14.3854C4.03672 16.3131 3.53403 18.3818 3.53403 20.5336C3.53403 21.6299 3.68098 22.7583 3.97085 23.8879C5.50052 29.8417 10.8584 33.9999 17.0004 33.9999C24.4253 33.9999 30.4659 27.9589 30.4659 20.5336C30.4659 16.872 29.0158 13.4454 26.3828 10.8852Z" fill="#FF5555"/>
<circle cx="16" cy="20" r="4" fill="white"/>
</svg>
