<svg width="48" height="49" viewBox="0 0 48 49" fill="none" xmlns="http://www.w3.org/2000/svg">
    <circle cx="24" cy="24.9801" r="24" fill="#FF5555" />
    <path
        d="M24 14.9801L22.6985 20.1861C22.4445 21.202 22.3176 21.7099 22.0531 22.1232C21.8192 22.4888 21.5087 22.7993 21.1431 23.0332C20.7298 23.2977 20.2218 23.4246 19.206 23.6786L14 24.9801L19.206 26.2816C20.2218 26.5356 20.7298 26.6625 21.1431 26.927C21.5087 27.161 21.8192 27.4714 22.0531 27.837C22.3176 28.2503 22.4445 28.7583 22.6985 29.7741L24 34.9801L25.3015 29.7741C25.5555 28.7583 25.6824 28.2503 25.9469 27.837C26.1808 27.4714 26.4913 27.161 26.8569 26.927C27.2702 26.6625 27.7782 26.5356 28.794 26.2816L34 24.9801L28.794 23.6786C27.7782 23.4246 27.2702 23.2977 26.8569 23.0332C26.4913 22.7993 26.1808 22.4888 25.9469 22.1232C25.6824 21.7099 25.5555 21.202 25.3015 20.1861L24 14.9801Z"
        stroke="white" stroke-width="2" stroke-linecap="round" stroke-linejoin="round" />
</svg>