<svg width="534" height="486" viewBox="0 0 534 486" fill="none" xmlns="http://www.w3.org/2000/svg">
    <path
        d="M461.741 23.7474C515.082 77.0885 548.337 140.385 559.002 199.583C569.667 258.783 557.736 313.833 520.784 350.784C483.833 387.736 428.783 399.667 369.583 389.002C310.385 378.337 247.088 345.082 193.747 291.741C140.406 238.4 107.151 175.103 96.4861 115.905C85.8211 56.7055 97.7523 1.6555 134.704 -35.296C171.655 -72.2476 226.705 -84.1787 285.905 -73.5138C345.103 -62.8493 408.4 -29.5938 461.741 23.7474Z"
        stroke="white" />
    <path
        d="M493.741 -8.25263C547.082 45.0885 580.337 108.385 591.002 167.583C601.667 226.783 589.736 281.833 552.784 318.784C515.833 355.736 460.783 367.667 401.583 357.002C342.385 346.337 279.088 313.082 225.747 259.741C172.406 206.4 139.151 143.103 128.486 83.9055C117.821 24.7055 129.752 -30.3445 166.704 -67.296C203.655 -104.248 258.705 -116.179 317.905 -105.514C377.103 -94.8493 440.4 -61.5938 493.741 -8.25263Z"
        stroke="white" />
    <path
        d="M525.741 -40.2526C579.082 13.0885 612.337 76.385 623.002 135.583C633.667 194.783 621.736 249.833 584.784 286.784C547.833 323.736 492.783 335.667 433.583 325.002C374.385 314.337 311.088 281.082 257.747 227.741C204.406 174.4 171.151 111.103 160.486 51.9055C149.821 -7.2945 161.752 -62.3445 198.704 -99.296C235.655 -136.248 290.705 -148.179 349.905 -137.514C409.103 -126.849 472.4 -93.5938 525.741 -40.2526Z"
        stroke="white" />
</svg>